Coordinates
version=1
nRows=5
nColumns=46
inDegrees=yes

Units are S.I. units (second, meters, Newtons, ...)
Angles are in degrees.

endheader
time	pelvis_tilt	pelvis_list	pelvis_rotation	pelvis_tx	pelvis_ty	pelvis_tz	bb_angle	bb_tx	bb_ty	bb_tz	hip_flexion_r	hip_adduction_r	hip_rotation_r	knee_angle_r	knee_angle_r_beta	ankle_angle_r	subtalar_angle_r	mtp_angle_r	crank_angle_r	hip_flexion_l	hip_adduction_l	hip_rotation_l	knee_angle_l	knee_angle_l_beta	ankle_angle_l	subtalar_angle_l	mtp_angle_l	crank_angle_l	lumbar_extension	lumbar_bending	lumbar_rotation	arm_flex_r	arm_add_r	arm_rot_r	elbow_flex_r	pro_sup_r	wrist_flex_r	wrist_dev_r	arm_flex_l	arm_add_l	arm_rot_l	elbow_flex_l	pro_sup_l	wrist_flex_l	wrist_dev_l
      2.50500000	    -13.10194417	      3.71481704	      3.32906065	      0.09705332	      1.14004700	     -0.27472250	      0.00000000	      0.50000000	      0.00000000	      0.25000000	     52.16796259	     -8.83366330	      1.75639455	     73.00851622	      1.27423899	     -2.06521476	    -12.06121588	      0.00000000	      0.00000000	     76.28527994	     -0.31206346	     -0.49683576	     76.57991934	      1.33657173	     13.36765716	     -6.54644649	      0.00000000	      0.00000000	    -59.92003319	      0.17057966	    -10.86677872	     82.91632454	    -12.29200333	     35.34319420	     55.28178014	     44.84365976	      0.00000000	      0.00000000	     84.60004258	    -32.18336475	     42.84948896	     64.97018980	     47.37680523	      0.00000000	      0.00000000
      2.51000000	    -13.12352429	      3.29177298	      3.16490439	      0.09793561	      1.14011128	     -0.27426277	      0.00000000	      0.50000000	      0.00000000	      0.25000000	     52.63481912	     -8.39588277	      1.61746916	     74.24362081	      1.29579563	     -1.75140938	    -12.18187952	      0.00000000	      0.00000000	     75.44451774	     -0.54545167	     -0.10743274	     75.15252189	      1.31165895	     13.32226964	     -6.46834294	      0.00000000	      0.00000000	    -59.85634616	      0.24362582	    -10.51141458	     82.77661580	    -12.23544711	     35.40300981	     55.26647050	     44.85031835	      0.00000000	      0.00000000	     84.52470347	    -32.31986969	     42.82542367	     64.96871008	     47.38234563	      0.00000000	      0.00000000
      2.51500000	    -13.14901855	      2.91041031	      3.01559593	      0.09876787	      1.14006650	     -0.27384471	      0.00000000	      0.50000000	      0.00000000	      0.25000000	     53.12637317	     -8.00796928	      1.49641409	     75.50921950	      1.31788450	     -1.30881165	    -12.27874205	      0.00000000	      0.00000000	     74.59803825	     -0.75347033	      0.23922647	     73.70696532	      1.28642923	     13.24568323	     -6.38951506	      0.00000000	      0.00000000	    -59.77918626	      0.31855329	    -10.18448771	     82.65760957	    -12.22040558	     35.45661303	     55.25717553	     44.85757397	      0.00000000	      0.00000000	     84.39384171	    -32.45320349	     42.80615692	     64.98450658	     47.39258599	      0.00000000	      0.00000000
      2.52000000	    -13.23096978	      2.95017169	      2.98235222	      0.09970743	      1.13987639	     -0.27378930	      0.00000000	      0.50000000	      0.00000000	      0.25000000	     53.78672321	     -8.12448742	      1.62068674	     76.96181768	      1.34323712	     -0.24097861	    -11.56248706	      0.00000000	      0.00000000	     73.71343200	     -0.63021903	      0.30139313	     72.20500341	      1.26021505	     12.97237093	     -6.32524574	      0.00000000	      0.00000000	    -59.63484185	      0.19108297	    -10.24190945	     82.45908135	    -12.45719838	     35.63109148	     55.35045570	     44.90921840	      0.00000000	      0.00000000	     84.02270685	    -32.51068084	     42.66992212	     65.31798272	     47.48817662	      0.00000000	      0.00000000
      2.52500000	    -13.19772810	      2.51902388	      2.80241410	      0.10055877	      1.13970525	     -0.27327865	      0.00000000	      0.50000000	      0.00000000	      0.25000000	     54.29161541	     -7.69926658	      1.43012955	     78.28182187	      1.36627554	      0.02512003	    -11.63118379	      0.00000000	      0.00000000	     72.86314315	     -0.91392519	      0.73659411	     70.88675502	      1.23720727	     12.77216130	     -6.20676390	      0.00000000	      0.00000000	    -59.59228170	      0.26971759	     -9.89828669	     82.34410582	    -12.40477036	     35.68533367	     55.37589416	     44.92214687	      0.00000000	      0.00000000	     83.91965550	    -32.66840684	     42.62090141	     65.31499022	     47.49178857	      0.00000000	      0.00000000
